<svg width="130" height="130" viewBox="0 0 130 130" fill="none" xmlns="http://www.w3.org/2000/svg">
<g clip-path="url(#clip0_283_481)">
<rect width="130" height="130" rx="28.0526" fill="url(#paint0_linear_283_481)"/>
<g filter="url(#filter0_f_283_481)">
<circle cx="108.36" cy="141.759" r="41.8289" fill="#FFE355" fill-opacity="0.49" style="fill:#FFE355;fill:color(display-p3 1.0000 0.8891 0.3348);fill-opacity:0.49;"/>
</g>
<path fill-rule="evenodd" clip-rule="evenodd" d="M99.4282 10.1638C100.703 9.02064 100.78 8.97669 101.714 8.92058C103.229 8.80992 104.616 9.53654 106.977 11.6861C112.493 16.6987 120.175 27.0043 124.95 35.8049L126.795 39.2201L129.401 40.5162C131.917 41.7875 136.044 44.394 137.767 45.7919C138.547 46.4365 138.657 46.4497 139.467 46.1344C143.125 44.7098 148.365 46.5984 152.987 51.0325C157.148 55.0201 161.133 61.833 162.659 67.5195C162.882 68.4346 163.178 70.4028 163.286 71.8681C163.634 77.013 161.984 81.1226 158.806 82.9826C158.158 83.3572 158.115 83.4591 158.133 85.0776C158.279 92.7829 156.202 100.474 152.03 107.974C147.32 116.396 138.933 125.107 127.583 133.315C121.488 137.751 107.067 146.153 100.547 149.102C84.9287 156.134 72.4081 158.831 61.5321 157.498C55.0448 156.712 47.7017 154.18 43.357 151.241C42.2133 150.45 42.0324 150.402 41.1585 150.652C36.5074 151.988 30.4158 149.242 25.241 143.498C23.177 141.202 19.8464 135.564 18.7664 132.547C16.2684 125.487 16.7648 119.115 20.0922 115.31C20.952 114.33 20.9796 114.289 20.7918 112.641C20.4817 109.943 20.3406 105.951 20.4823 103.375L20.5947 100.968L16.9813 94.5763C11.3858 84.6202 7.8314 76.2603 6.46025 69.8729C5.7364 66.3704 5.78144 64.8166 6.67051 63.6668C7.21161 62.9725 8.98625 62.2531 11.1257 61.858C16.5115 60.9125 28.2577 61.7685 41.3255 64.0757L42.6832 64.3101L45.6662 61.6722C50.6181 57.2859 53.9074 54.8262 59.9722 51.0446C66.2933 47.0897 73.4271 43.8362 81.4607 41.26L84.0384 40.4337L85.4554 36.7142C90.5286 23.3221 95.7238 13.4483 99.4282 10.1638ZM56.9346 78.7893C51.2012 82.0995 48.3345 83.7553 46.228 85.6101C37.6975 93.1218 34.5094 105.02 38.1411 115.791C39.038 118.45 40.6927 121.318 44.0029 127.051C47.3132 132.785 48.9688 135.651 50.8238 137.758C58.3355 146.288 70.2338 149.476 81.0044 145.845C83.664 144.948 86.5308 143.292 92.2642 139.982L125.248 120.939C130.981 117.629 133.848 115.974 135.955 114.119C144.485 106.607 147.673 94.7089 144.042 83.9384C143.145 81.2787 141.489 78.412 138.179 72.6785C134.869 66.9451 133.214 64.078 131.359 61.9714C123.847 53.4409 111.949 50.2528 101.178 53.8845C98.5186 54.7814 95.6515 56.4361 89.918 59.7463L56.9346 78.7893Z" fill="url(#paint1_linear_283_481)"/>
<rect x="60.1133" y="101.836" width="13.0294" height="27.061" rx="6.51468" transform="rotate(-30 60.1133 101.836)" fill="white" style="fill:white;fill-opacity:1;"/>
<rect x="95.2666" y="81.54" width="13.0294" height="27.061" rx="6.51468" transform="rotate(-30 95.2666 81.54)" fill="white" style="fill:white;fill-opacity:1;"/>
</g>
<defs>
<filter id="filter0_f_283_481" x="30.78" y="64.179" width="155.161" height="155.16" filterUnits="userSpaceOnUse" color-interpolation-filters="sRGB">
<feFlood flood-opacity="0" result="BackgroundImageFix"/>
<feBlend mode="normal" in="SourceGraphic" in2="BackgroundImageFix" result="shape"/>
<feGaussianBlur stdDeviation="17.8756" result="effect1_foregroundBlur_283_481"/>
</filter>
<linearGradient id="paint0_linear_283_481" x1="65" y1="0" x2="65" y2="130" gradientUnits="userSpaceOnUse">
<stop stop-color="#0EC8A9" style="stop-color:#0EC8A9;stop-color:color(display-p3 0.0565 0.7837 0.6625);stop-opacity:1;"/>
<stop offset="1" stop-color="#01C886" style="stop-color:#01C886;stop-color:color(display-p3 0.0021 0.7858 0.5246);stop-opacity:1;"/>
</linearGradient>
<linearGradient id="paint1_linear_283_481" x1="54.1591" y1="36.0036" x2="114.973" y2="141.337" gradientUnits="userSpaceOnUse">
<stop stop-color="white" stop-opacity="0.8" style="stop-color:white;stop-opacity:0.8;"/>
<stop offset="0.437689" stop-color="white" style="stop-color:white;stop-opacity:1;"/>
</linearGradient>
<clipPath id="clip0_283_481">
<rect width="130" height="130" rx="28.0526" fill="white" style="fill:white;fill-opacity:1;"/>
</clipPath>
</defs>
</svg>
